<svg xmlns="http://www.w3.org/2000/svg" xmlns:xlink="http://www.w3.org/1999/xlink" version="1.1" id="Layer_1" x="0px" y="0px" viewBox="5.0 -10.0 100.0 135.0" enable-background="new 0 0 100 100" xml:space="preserve" height="100px" width="100px">
<path d="M51.2,70.1c0.8,0,1.6-0.1,2.3-0.2C52.8,70,52,70.1,51.2,70.1z M51.2,35.5v-5.6l-9.8,5.7l-9.8,5.7l9.8,5.7l9.8,5.7v-5.7  c6.4,0,11.6,5.2,11.6,11.5c0,5.6-4,10.2-9.2,11.3c8.4-1.1,14.9-8.3,14.9-17C68.5,43.2,60.7,35.5,51.2,35.5z M95,50  c0,24.8-20.2,45-45,45S5,74.8,5,50S25.2,5,50,5S95,25.2,95,50z M50,11.3c-21.3,0-38.7,17.4-38.7,38.7S28.7,88.7,50,88.7  c21.3,0,38.7-17.4,38.7-38.7S71.3,11.3,50,11.3z"/>
<text x="0.0" y="117.5" font-size="5.0" font-weight="bold" font-family="Helvetica Neue, Helvetica, Arial-Unicode, Arial, Sans-serif" fill="#000000">Created by Tom Walsh</text><text x="0.0" y="122.5" font-size="5.0" font-weight="bold" font-family="Helvetica Neue, Helvetica, Arial-Unicode, Arial, Sans-serif" fill="#000000">from the Noun Project</text></svg>